<?xml version="1.0" encoding="UTF-8" standalone="no"?>
<!-- Created with Inkscape (http://www.inkscape.org/) -->

<svg
   xmlns:dc="http://purl.org/dc/elements/1.1/"
   xmlns:cc="http://creativecommons.org/ns#"
   xmlns:rdf="http://www.w3.org/1999/02/22-rdf-syntax-ns#"
   xmlns:svg="http://www.w3.org/2000/svg"
   xmlns="http://www.w3.org/2000/svg"
   xmlns:sodipodi="http://sodipodi.sourceforge.net/DTD/sodipodi-0.dtd"
   xmlns:inkscape="http://www.inkscape.org/namespaces/inkscape"
   width="32"
   height="32"
   id="svg4137"
   version="1.1"
   inkscape:version="0.48.4 r9939"
   sodipodi:docname="favicon.svg">
  <defs
     id="defs4139">
    <clipPath
       clipPathUnits="userSpaceOnUse"
       id="clipPath4081">
      <rect
         y="397.39142"
         x="-1975.261"
         height="305.68533"
         width="276.23672"
         id="rect4083"
         style="fill:#000000;fill-opacity:0.69907406;fill-rule:nonzero;stroke:none" />
    </clipPath>
    <clipPath
       clipPathUnits="userSpaceOnUse"
       id="clipPath3838">
      <rect
         style="fill:#000000;fill-opacity:0.72689059;fill-rule:nonzero;stroke:none"
         id="rect3840"
         width="12.410714"
         height="13.303572"
         x="533.56836"
         y="810.755" />
    </clipPath>
    <clipPath
       clipPathUnits="userSpaceOnUse"
       id="clipPath3850">
      <path
         style="fill:#916f6f;fill-opacity:0.67647059;stroke:none"
         d="m 539.42243,816.38034 c 0,0 0.86781,-0.17163 0.86781,-0.62331 0,0 0.14464,0.61428 0.55883,0.65041 0,0 1.00587,-0.0271 0.84809,-0.71365 0,0 0.19066,0.79496 0.51279,0.79496 0,0 0.72308,-0.26781 0.7343,-0.96948 0,0 0.55697,0.39129 0.6841,0.63651 0.15092,0.29112 0.78401,0.30587 0.78401,0.30587 0,0 0.55225,-0.009 0.47336,-0.48782 -0.0789,-0.47877 0.54567,0.41555 0.54567,0.41555 0,0 -0.017,9.02111 -0.21119,8.99954 -0.19418,-0.0216 -11.88826,-0.69043 -11.88826,-0.69043 l 0.28048,-8.47929 z"
         id="path3852"
         inkscape:connector-curvature="0"
         sodipodi:nodetypes="ccccccscsc" />
    </clipPath>
    <clipPath
       clipPathUnits="userSpaceOnUse"
       id="clipPath3866">
      <rect
         style="fill:#0eb30f;fill-opacity:0.68067226;fill-rule:nonzero;stroke:none"
         id="rect3868"
         width="27.14785"
         height="17.418468"
         x="573.49768"
         y="804.98059" />
    </clipPath>
  </defs>
  <sodipodi:namedview
     id="base"
     pagecolor="#ffffff"
     bordercolor="#666666"
     borderopacity="1.0"
     inkscape:pageopacity="0.0"
     inkscape:pageshadow="2"
     inkscape:zoom="7.919596"
     inkscape:cx="5.1712503"
     inkscape:cy="4.692053"
     inkscape:document-units="px"
     inkscape:current-layer="layer1"
     showgrid="false"
     inkscape:window-width="1600"
     inkscape:window-height="823"
     inkscape:window-x="-9"
     inkscape:window-y="-9"
     inkscape:window-maximized="1"
     fit-margin-top="0"
     fit-margin-left="0"
     fit-margin-right="0"
     fit-margin-bottom="0" />
  <metadata
     id="metadata4142">
    <rdf:RDF>
      <cc:Work
         rdf:about="">
        <dc:format>image/svg+xml</dc:format>
        <dc:type
           rdf:resource="http://purl.org/dc/dcmitype/StillImage" />
        <dc:title />
      </cc:Work>
    </rdf:RDF>
  </metadata>
  <g
     inkscape:label="Layer 1"
     inkscape:groupmode="layer"
     id="layer1"
     transform="translate(-578.48036,-790.39912)">
    <g
       id="g3984"
       transform="matrix(0.07240167,0,0,0.06542676,597.59372,778.41572)"
       style="fill:#a71247;fill-opacity:1;stroke:none">
      <path
         style="fill:#a71247;fill-opacity:1;stroke:none"
         d="m -401.53564,427.07776 c 0,0 8.83884,21.71828 -50.25509,47.98224 0,0 -11.86929,8.33376 -23.48604,8.83884 -11.61676,0.50507 -8.5863,-9.84899 -15.65737,-2.02031 -7.07107,7.82868 -14.64721,18.18275 -40.65864,22.4759 0,0 -45.45686,26.26396 -63.63961,24.24366 0,0 -1.26269,-6.56599 1.01015,-9.09138 2.27285,-2.52538 3.03046,-12.6269 1.51523,-12.87944 -1.51523,-0.25254 -6.81853,-27.27412 -6.81853,-27.27412 0,0 -3.28299,-28.53681 1.26269,-40.91118 0,0 2.52539,-26.01143 52.2754,-35.86041 0,0 24.74874,-4.29315 49.49747,9.59645 0,0 14.89975,8.83883 47.22463,5.3033 32.32489,-3.53554 47.72971,9.59645 47.72971,9.59645 z"
         id="path3986"
         inkscape:connector-curvature="0" />
    </g>
    <g
       id="g3989"
       transform="matrix(0.07240167,0,0,0.06542676,597.59371,778.41572)">
      <g
         id="g3991">
        <g
           id="g3993">
          <path
             inkscape:connector-curvature="0"
             id="path4000"
             d="m -522.13096,673.16703 c -4.12317,-1.31751 -12.30552,-2.05052 -22.91325,-2.05268 -1.01301,-2e-4 -3.30854,-0.97188 -5.10118,-2.15927 l -3.25936,-2.15891 2.00461,-3.73395 c 1.10253,-2.05368 2.35554,-5.06191 2.78447,-6.68497 0.58499,-2.21357 1.29654,-3.16502 2.84745,-3.80743 4.39699,-1.82129 6.13876,-5.33151 6.91924,-13.9444 0.31912,-3.52153 0.81317,-5.41671 1.47864,-5.67208 1.27911,-0.49084 2.21733,1.95517 3.0762,8.01989 1.56789,11.07131 -2.64164,17.29292 -11.22968,16.59727 -0.88393,-0.0716 -1.60714,0.20812 -1.60714,0.62161 0,1.06118 3.22097,1.74196 5.80068,1.22602 4.30288,-0.86058 6.76567,-3.657 8.78268,-9.97248 0.34434,-1.07816 1.0489,-0.55707 3.96426,2.93197 3.19575,3.82458 7.85508,8.02207 8.90472,8.02207 1.2534,0 -0.017,-1.94669 -3.04978,-4.67345 -5.10248,-4.58757 -9.39527,-10.44806 -9.44374,-12.89252 -0.0226,-1.14229 -0.6043,-4.23562 -1.29256,-6.87408 -1.11741,-4.28363 -1.13358,-4.84241 -0.15102,-5.21945 0.6052,-0.23224 1.2078,-0.1 1.3391,0.29397 0.72939,2.18817 6.56025,8.08832 11.37323,11.50839 10.37469,7.37218 15.40917,14.2165 15.49949,21.07143 0.11998,9.10503 -6.42723,12.84423 -16.72706,9.55305 z"
             style="fill:#c83737;fill-opacity:1;fill-rule:nonzero;stroke:none" />
          <path
             inkscape:connector-curvature="0"
             id="path4006"
             d="m -517.44016,642.88379 c -5.84536,-4.04322 -10.70015,-8.55194 -12.19282,-11.32366 l -1.41102,-2.6201 2.13509,-1.70722 c 1.74635,-1.39638 2.23961,-1.52269 2.70911,-0.69372 0.73401,1.296 5.73299,3.8606 7.52515,3.8606 0.83679,0 1.70245,0.8017 2.22322,2.05895 0.46906,1.13242 1.81664,2.98063 2.99463,4.10714 2.00861,1.92085 2.50773,2.04678 8.02713,2.02543 l 5.88535,-0.0228 1.2108,2.83521 c 0.95118,2.22726 1.01847,2.95732 0.31383,3.40469 -0.49334,0.31321 -4.27199,0.55669 -8.39699,0.54106 -7.34991,-0.0278 -7.57051,-0.0772 -11.02348,-2.46561 z"
             style="fill:#c83737;fill-opacity:1;fill-rule:nonzero;stroke:none" />
          <path
             inkscape:connector-curvature="0"
             id="path4008"
             d="m -521.05981,627.98118 c -1.17872,-0.51371 -2.57316,-1.45217 -3.09875,-2.08546 -0.8313,-1.00167 -0.70827,-1.21353 0.94581,-1.62868 2.76817,-0.69476 5.3675,0.71111 5.3675,2.90306 0,2.04487 -0.24295,2.10617 -3.21456,0.81108 z"
             style="fill:#c83737;fill-opacity:1;fill-rule:nonzero;stroke:none" />
          <path
             inkscape:connector-curvature="0"
             id="path4010"
             d="m -503.94709,660.22112 c -0.69398,-3.21518 -2.79552,-7.18655 -5.33111,-10.07443 -1.17616,-1.33958 -2.13848,-2.63423 -2.13848,-2.87701 0,-0.24278 3.66909,-0.44141 8.15353,-0.44141 l 8.15352,0 2.95734,3.71425 2.95733,3.71426 -2.41324,1.23807 c -1.32729,0.68094 -3.59419,2.54524 -5.03757,4.14289 -1.92966,2.13589 -3.17703,2.90481 -4.71229,2.90481 -1.77668,0 -2.16267,-0.34609 -2.58903,-2.32143 z"
             style="fill:#c83737;fill-opacity:1;fill-rule:nonzero;stroke:none" />
        </g>
        <g
           id="g4012">
          <path
             inkscape:connector-curvature="0"
             id="path4014"
             d="m -428.21691,669.15082 c -1.18656,-1.08097 -3.42614,-2.9732 -4.97685,-4.20495 -2.42637,-1.9273 -2.68864,-2.39719 -1.88109,-3.37022 0.51611,-0.62188 1.33899,-2.48747 1.82863,-4.14577 0.86221,-2.92014 1.02312,-3.04545 5.1099,-3.97948 2.3208,-0.53042 7.91607,-1.25272 12.43393,-1.60513 9.7105,-0.75743 10,-0.58855 10,5.8338 0,4.24255 1.04397,5.57312 1.85072,2.35879 0.40539,-1.61523 0.11449,-4.4859 -0.87316,-8.61649 -0.28205,-1.1796 0.2287,-1.74085 2.5276,-2.7775 1.58459,-0.71456 3.4531,-1.93447 4.15224,-2.71092 1.23408,-1.37054 1.28261,-1.25824 1.66323,3.84893 0.31208,4.18735 0.14969,5.62501 -0.79589,7.04639 -1.01225,1.52159 -2.35699,4.9985 -3.24604,8.39285 -0.12863,0.49107 -0.86219,0.89286 -1.63014,0.89286 -0.76795,0 -2.8373,1.09996 -4.59855,2.44435 -3.10281,2.36843 -3.29508,2.41693 -6.19108,1.56185 -2.81668,-0.83167 -3.15179,-1.22921 -5.81846,-6.90245 -2.68516,-5.71257 -5.1506,-9.24661 -6.45069,-9.24661 -1.02204,0 -0.64245,1.43177 0.78612,2.96517 1.15936,1.24442 6.48124,11.30634 6.48124,12.25388 0,0.16893 -1.20535,0.49342 -2.67857,0.72111 -1.47321,0.22768 -3.32143,0.59194 -4.10714,0.80946 -0.94672,0.2621 -2.15626,-0.26743 -3.58595,-1.56992 z"
             style="fill:#c83737;fill-opacity:1;fill-rule:nonzero;stroke:none" />
          <path
             inkscape:connector-curvature="0"
             id="path4016"
             d="m -416.17722,648.26435 c 2.7035,-2.3737 4.89142,-5.93764 5.70516,-9.29323 0.35732,-1.47345 1.59104,-2.23769 7.05529,-4.37047 l 6.62225,-2.58476 1.82314,1.87047 c 1.79995,1.84669 1.80767,1.90268 0.60627,4.40258 -2.93965,6.11693 -11.12497,10.94824 -20.14627,11.89115 l -4.36768,0.45651 2.70184,-2.37225 0,0 z"
             style="fill:#c83737;fill-opacity:1;fill-rule:nonzero;stroke:none" />
          <path
             inkscape:connector-curvature="0"
             id="path4018"
             d="m -409.99239,633.1034 c -0.002,-1.29061 -0.20689,-4.94886 -0.45453,-8.12944 l -0.45025,-5.78287 4.08129,-0.42123 c 2.24471,-0.23167 4.80593,-0.89603 5.6916,-1.47634 0.88568,-0.58032 1.96099,-0.83839 2.3896,-0.5735 0.44207,0.27321 0.88038,3.3404 1.01293,7.08831 l 0.23365,6.60669 -5,1.88035 c -2.75,1.03419 -5.5625,2.16705 -6.25,2.51747 -1.0658,0.54323 -1.25064,0.29132 -1.25429,-1.70944 z"
             style="fill:#c83737;fill-opacity:1;fill-rule:nonzero;stroke:none" />
          <path
             inkscape:connector-curvature="0"
             id="path4021"
             d="m -409.9881,615.03402 c 0,-3.26126 1.46882,-4.58001 5.13641,-4.61161 2.84519,-0.0245 3.01336,0.10823 3.67979,2.90455 0.50616,2.12384 -1.06253,3.15831 -5.9823,3.94502 l -2.8339,0.45315 0,-2.69111 z"
             style="fill:#c83737;fill-opacity:1;fill-rule:nonzero;stroke:none" />
          <path
             inkscape:connector-curvature="0"
             id="path4023"
             d="m -404.1389,608.96905 -1.29819,-0.14824 1.74013,-1.21385 1.74012,-1.21385 0,1.40326 c 0,1.18375 -0.0691,1.39681 -0.44194,1.36208 -0.24307,-0.0226 -1.02612,-0.10787 -1.74012,-0.1894 z"
             style="fill:#c83737;fill-opacity:1;fill-rule:nonzero;stroke:none" />
        </g>
        <g
           id="g4025">
          <path
             inkscape:connector-curvature="0"
             id="path4027"
             d="m -405.95698,580.92247 c -2.69742,-2.0268 -6.21664,-3.29012 -9.16524,-3.29012 l -1.60199,0 3.83842,-3.85121 c 3.62505,-3.63712 3.90124,-3.98456 4.96853,-6.25032 1.43541,-3.04722 1.87121,-5.23133 1.41817,-7.10753 -0.17963,-0.74387 -0.31145,-1.97752 -0.29295,-2.74145 0.0433,-1.78562 -0.35299,-3.96589 -1.12097,-6.16808 -0.3354,-0.96176 -0.60982,-1.84874 -0.60982,-1.97106 0,-0.12233 0.65344,-0.51096 1.4521,-0.86362 2.228,-0.98383 4.66179,-2.70974 6.26878,-4.44549 1.14175,-1.23322 1.42074,-1.43356 1.29419,-0.92933 -0.30419,1.212 -0.47262,6.16983 -0.24392,7.18024 0.20907,0.92372 0.15768,1.1041 -0.60052,2.10805 -0.91896,1.21682 -1.76688,3.28156 -2.12661,5.1784 -0.28913,1.52454 -0.28991,5.95587 -10e-4,7.44956 0.1807,0.93525 0.12238,1.255 -0.39148,2.14657 -2.11661,3.67237 -2.67144,9.60765 -1.24355,13.30297 0.082,0.21233 0.005,0.58389 -0.1723,0.82569 -0.29644,0.4054 -0.42644,0.36076 -1.66952,-0.57327 l 0,0 z"
             style="fill:#c83737;fill-opacity:1;fill-rule:nonzero;stroke:none" />
          <path
             inkscape:connector-curvature="0"
             id="path4029"
             d="m -408.64938,556.67138 c -1.26591,-1.39882 -5.02073,-2.47859 -9.51218,-2.73541 l -2.94646,-0.16847 1.19338,-1.35909 1.19337,-1.35909 2.54313,-0.21504 c 1.39871,-0.11827 3.2672,-0.38573 4.1522,-0.59435 0.88499,-0.20862 1.74579,-0.38099 1.91289,-0.38304 0.36312,-0.004 1.74276,4.17181 1.9874,6.01599 0.0951,0.71713 0.11912,1.30388 0.0533,1.30388 -0.0658,0 -0.32548,-0.22742 -0.57703,-0.50538 l 0,0 z"
             style="fill:#c83737;fill-opacity:1;fill-rule:nonzero;stroke:none" />
          <path
             inkscape:connector-curvature="0"
             id="path4031"
             d="m -435.96351,599.14911 c -3.22832,-4.29799 -10.46272,-9.6423 -13.0641,-9.6509 -1.01769,-0.003 -1.1172,-0.0888 -5.1501,-4.41942 -2.2618,-2.42879 -4.26679,-4.41598 -4.45554,-4.41598 -0.18874,0 -0.41055,0.1756 -0.49291,0.39022 -0.10036,0.26153 0.70279,1.31306 2.43523,3.18836 1.42173,1.53897 3.07626,3.35154 3.67672,4.02792 l 1.09176,1.22979 -2.73325,-0.12922 c -1.50329,-0.0711 -3.84274,-0.1848 -5.19878,-0.25275 -3.43294,-0.172 -7.13794,-1.51267 -11.23184,-4.06429 l -1.83394,-1.14305 0.14294,-1.05528 c 0.89695,-6.62185 4.36638,-11.20566 10.59014,-13.99169 2.15165,-0.96317 3.84345,-1.45084 6.78847,-1.95682 3.38888,-0.58223 3.76172,-0.53491 5.80408,0.73671 2.69483,1.67785 7.3784,3.85281 9.37826,4.35509 0.97228,0.24418 1.80039,0.4607 1.84026,0.48114 0.0399,0.0204 -0.6488,0.76217 -1.53036,1.64827 -2.48426,2.49705 -3.33715,4.77192 -2.92339,7.79742 0.28572,2.0892 1.38235,4.31064 3.11712,6.31432 3.28165,3.79037 6.3221,4.71407 13.44781,4.08553 1.76472,-0.15566 3.53337,-0.16371 4.67195,-0.0213 3.08814,0.38637 5.80499,2.13422 5.38319,3.4632 -0.35544,1.1199 -1.80835,1.5894 -10.28354,3.32302 l -8.24779,1.68711 -1.22239,-1.62743 0,0 z"
             style="fill:#c83737;fill-opacity:1;fill-rule:nonzero;stroke:none" />
          <path
             inkscape:connector-curvature="0"
             id="path4033"
             d="m -475.06663,577.2789 c -2.73924,-2.81285 -6.45737,-4.2956 -11.86929,-4.73335 -1.80565,-0.14605 -4.30578,-0.53228 -5.55584,-0.8583 -1.25006,-0.32602 -2.92629,-0.72079 -3.72494,-0.87727 -0.79865,-0.15648 -1.45209,-0.38324 -1.45209,-0.50391 0,-0.12068 1.27363,-1.47633 2.83028,-3.01256 l 2.83028,-2.79314 2.28362,-0.004 c 3.53489,-0.006 6.77984,-0.96574 9.29805,-2.75067 l 1.06678,-0.75615 2.14658,0.63245 c 1.18061,0.34785 3.26388,0.81739 4.62948,1.04342 l 2.48291,0.41097 2.37845,2.77567 c 1.30815,1.52661 2.37845,2.85463 2.37845,2.95114 0,0.0965 -0.42616,0.45869 -0.94702,0.80484 -2.72268,1.80941 -5.53082,5.25271 -6.51434,7.98779 -0.2569,0.71442 -0.52988,1.28541 -0.60661,1.26885 -0.0767,-0.0166 -0.82137,-0.73027 -1.65475,-1.58604 z"
             style="fill:#c83737;fill-opacity:1;fill-rule:nonzero;stroke:none" />
          <path
             inkscape:connector-curvature="0"
             id="path4035"
             d="m -466.14493,565.67469 -2.1864,-2.56328 1.80147,-0.18805 c 2.59154,-0.27051 4.90145,-1.1189 6.1454,-2.25711 l 0.54002,-0.49412 1.98536,1.60033 c 1.09194,0.88019 2.52155,1.98436 3.1769,2.45372 1.29259,0.92575 1.3428,1.28434 0.17983,1.28434 -1.6472,0 -6.93175,1.42201 -8.71879,2.34613 l -0.7374,0.38132 -2.18639,-2.56328 0,0 z"
             style="fill:#c83737;fill-opacity:1;fill-rule:nonzero;stroke:none" />
          <path
             inkscape:connector-curvature="0"
             id="path4037"
             d="m -476.51501,580.61665 c -3.02925,-3.03248 -4.66589,-4.27859 -7.47111,-5.68836 l -2.19219,-1.10169 1.26269,0.16647 c 3.49027,0.46014 6.90102,2.11472 9.2887,4.506 1.53134,1.53365 1.88481,2.27226 1.70021,3.5527 l -0.14563,1.01015 -2.44267,-2.44527 0,0 z"
             style="fill:#c83737;fill-opacity:1;fill-rule:nonzero;stroke:none" />
          <path
             inkscape:connector-curvature="0"
             id="path4039"
             d="m -499.05775,567.74796 c -4.19565,-3.23544 -10.72347,-4.15499 -16.12872,-2.272 -1.23152,0.42902 -3.07145,1.22898 -4.08874,1.7777 l -1.8496,0.99766 -1.25103,-0.47535 c -2.58081,-0.98063 -7.41127,-2.0061 -12.47919,-2.64925 l -1.19956,-0.15222 0,-1.20842 c 0,-0.66464 -0.0738,-2.24866 -0.16408,-3.52007 l -0.16409,-2.31163 1.74908,0 c 2.69538,0 5.80483,-0.44743 8.26498,-1.18927 2.18706,-0.65949 2.24169,-0.66353 2.49525,-0.18443 0.14257,0.26939 1.02179,1.24613 1.95381,2.17052 1.71294,1.69892 3.80288,2.95991 6.04639,3.64816 2.89224,0.88727 7.76114,0.62945 11.36375,-0.60174 l 1.36678,-0.4671 2.27678,0.93921 c 1.25223,0.51656 3.3646,1.19693 4.69414,1.51194 l 2.41735,0.57273 -2.13034,2.10329 c -1.17169,1.15681 -2.13765,2.10013 -2.14657,2.09626 -0.009,-0.004 -0.47081,-0.35756 -1.02639,-0.78599 l 0,0 z"
             style="fill:#c83737;fill-opacity:1;fill-rule:nonzero;stroke:none" />
          <path
             inkscape:connector-curvature="0"
             id="path4041"
             d="m -510.42197,570.25206 c -6.22859,-0.20632 -6.90983,-0.27286 -7.87385,-0.76911 -0.58044,-0.29878 -0.99888,-0.63458 -0.92989,-0.74622 0.21903,-0.35439 2.16594,-1.25555 4.38433,-2.02935 1.7067,-0.59532 2.71581,-0.77421 4.92449,-0.87295 3.25426,-0.1455 5.06856,0.22642 7.82868,1.60481 2.3094,1.1533 3.23977,1.9575 3.02983,2.61895 -0.18389,0.57937 0.11839,0.57422 -11.36359,0.19387 z"
             style="fill:#c83737;fill-opacity:1;fill-rule:nonzero;stroke:none" />
          <path
             inkscape:connector-curvature="0"
             id="path4043"
             d="m -546.27196,592.35796 c -2.0459,-1.92692 -3.81083,-2.73036 -5.99475,-2.72897 l -1.69118,10e-4 -0.16091,-1.64258 c -0.19646,-2.00542 -0.91028,-5.17628 -1.63996,-7.28474 l -0.54298,-1.569 0.91594,-0.94007 c 1.15433,-1.18474 2.28949,-3.43195 2.6793,-5.30406 0.41513,-1.9937 0.16694,-6.32121 -0.47904,-8.35274 l -0.51037,-1.60506 1.53757,-1.93048 c 1.88684,-2.36901 3.04571,-4.15994 3.4853,-5.38623 0.32063,-0.89445 0.35861,-0.91753 0.98328,-0.59754 1.21374,0.62173 5.56106,1.90184 7.76259,2.28575 1.20604,0.21032 2.22358,0.41317 2.26119,0.45079 0.0376,0.0376 0.14752,1.66695 0.24423,3.62075 l 0.17583,3.55235 -1.95116,0.14757 c -1.4804,0.11196 -2.38774,0.35304 -3.76062,0.99917 l -1.80945,0.85161 -2.39912,-0.56641 c -1.85857,-0.43879 -2.46817,-0.49862 -2.70565,-0.26554 -0.52382,0.51412 0.0298,0.94219 1.71845,1.32885 2.46072,0.56342 2.42019,0.53186 1.68911,1.31545 -1.99878,2.14234 -3.42215,5.80858 -3.98003,10.25153 -0.26717,2.12781 0.28649,4.63757 1.62558,7.36881 0.81124,1.6546 1.19754,2.10828 4.21903,4.95494 0.82921,0.78123 0.88996,1.21019 0.27457,1.93885 -0.43976,0.52069 -0.44939,0.51626 -1.94675,-0.89401 l 0,0 z"
             style="fill:#c83737;fill-opacity:1;fill-rule:nonzero;stroke:none" />
          <path
             inkscape:connector-curvature="0"
             id="path4049"
             d="m -546.06319,619.81568 c -0.43346,-0.3873 -0.94421,-0.75681 -1.135,-0.82113 -0.28498,-0.0961 -0.26938,-0.28063 0.0874,-1.03415 0.77159,-1.6295 1.06943,-3.97307 0.74995,-5.90106 -0.41645,-2.51315 -1.81239,-5.18065 -3.31968,-6.34356 -0.98387,-0.75906 -1.2436,-1.12616 -1.37664,-1.94573 -0.45438,-2.79908 -1.83967,-5.01666 -3.78992,-6.06694 -0.64491,-0.3473 -0.8633,-0.60457 -0.74227,-0.87438 0.64534,-1.43859 1.34,-3.81464 1.34548,-4.60217 0.006,-0.87569 0.0739,-0.95707 1.03854,-1.24608 1.75498,-0.5258 3.92457,0.32709 6.30678,2.47928 0.74957,0.67719 0.96652,1.03693 0.84888,1.40757 -0.28304,0.89179 -0.124,6.57505 0.24704,8.82788 0.50032,3.03774 1.50234,4.84432 4.1856,7.54639 1.18424,1.19254 2.57982,2.5069 3.10129,2.92082 l 0.94814,0.75256 -3.57253,2.63502 c -1.96489,1.44927 -3.69907,2.71036 -3.85375,2.80244 -0.15467,0.0921 -0.63587,-0.14946 -1.06933,-0.53676 l 0,0 z"
             style="fill:#c83737;fill-opacity:1;fill-rule:nonzero;stroke:none" />
        </g>
      </g>
    </g>
    <path
       style="fill:#d38d5f;fill-opacity:1;fill-rule:nonzero;stroke:none"
       d="m 562.89822,827.84211 c -0.0389,-0.11567 -0.18821,-0.35196 -0.33184,-0.5251 -0.42767,-0.51553 -0.64568,-1.15867 -0.64611,-1.90604 0,-0.52937 -0.049,-0.74783 -0.2236,-1.00377 -0.33557,-0.49178 -0.3819,-1.56668 -0.0967,-2.2432 0.43162,-1.02377 1.75373,-1.37487 3.018,-0.80146 0.34602,0.15694 0.46528,0.26833 0.49005,0.45771 0.0341,0.26052 0.17646,0.33577 0.25255,0.13345 0.0813,-0.21625 0.92596,0.12226 1.10774,0.44397 0.0872,0.15422 0.17026,0.29809 0.18471,0.31971 0.0145,0.0216 0.13381,-0.052 0.26525,-0.16357 0.29815,-0.25311 0.60296,-0.25885 0.84623,-0.0159 0.25319,0.25282 0.32256,0.23675 0.4545,-0.1053 0.10127,-0.26252 0.14481,-0.28643 0.42821,-0.23521 0.31284,0.0565 0.31491,0.0543 0.24707,-0.27249 -0.0635,-0.30575 -0.0451,-0.33743 0.25421,-0.43954 0.37295,-0.12721 0.40841,-0.21392 0.11576,-0.28308 -0.14778,-0.0349 -0.20687,-0.12749 -0.20687,-0.32409 0,-0.41512 0.20487,-0.86307 0.39799,-0.87022 0.12759,-0.005 0.11331,-0.0315 -0.0564,-0.10555 -0.33732,-0.14727 -0.63332,-1.10319 -0.34162,-1.10319 0.19561,0 0.10309,-0.15707 -0.15514,-0.2634 -0.29202,-0.12023 -0.33055,-0.34989 -0.10708,-0.6382 0.16825,-0.21708 0.11636,-0.31347 -0.16874,-0.31347 -0.16068,0 -0.18962,-0.0777 -0.18962,-0.50942 0,-0.38754 0.0433,-0.53161 0.181,-0.60214 0.16956,-0.0869 0.16792,-0.10163 -0.0258,-0.23367 -0.20005,-0.13631 -0.2009,-0.15061 -0.026,-0.43343 0.10967,-0.17729 0.15617,-0.38156 0.11808,-0.51871 -0.0346,-0.12443 -0.033,-0.33378 0.004,-0.46521 0.0515,-0.18538 0.112,-0.22589 0.26979,-0.18064 0.11188,0.0321 0.20342,0.0163 0.20342,-0.0351 0,-0.0514 -0.0931,-0.12017 -0.20687,-0.1528 -0.25468,-0.073 -0.26248,-0.20895 -0.0258,-0.45026 0.13267,-0.1353 0.14648,-0.1955 0.0517,-0.22545 -0.23751,-0.0751 -0.13299,-0.28163 0.20685,-0.4088 0.42055,-0.15736 1.214,-0.86419 1.21924,-1.08613 0.002,-0.0913 0.19145,-0.2833 0.42066,-0.42663 0.2292,-0.14333 0.48098,-0.39958 0.55952,-0.56944 0.1471,-0.31815 0.10478,-0.71216 -0.0765,-0.71216 -0.0571,0 -0.0745,0.10116 -0.0392,0.22831 0.0349,0.12557 0.009,0.3369 -0.0583,0.46963 -0.16003,0.3174 -0.7443,0.64208 -1.01547,0.56431 -0.24495,-0.0703 -0.2747,0.0281 -0.0533,0.17618 0.13611,0.091 0.13019,0.14068 -0.0483,0.40471 -0.23254,0.344 -0.98323,0.8674 -1.24408,0.8674 -0.0964,0 -0.25981,-0.0844 -0.36309,-0.18751 -0.10328,-0.10313 -0.21152,-0.16605 -0.24054,-0.13983 -0.029,0.0262 0.0523,0.14869 0.18061,0.27215 0.18969,0.18246 0.21239,0.25991 0.12129,0.41373 -0.22963,0.38774 -1.25024,0.83593 -1.25024,0.54904 0,-0.0683 -0.0673,-0.20577 -0.1496,-0.30555 -0.13747,-0.16673 -0.14795,-0.14734 -0.12929,0.23917 l 0.0203,0.4206 -0.62058,0.0654 c -0.34133,0.036 -0.78983,0.0926 -0.99668,0.12582 -0.21862,0.0351 -0.46932,0.0153 -0.59876,-0.0473 -0.18823,-0.091 -0.27148,-0.0706 -0.53818,0.13222 -0.34144,0.25962 -0.13934,0.24207 -2.87301,0.24949 -1.35751,0.004 -1.64654,-0.10766 -1.8122,-0.69818 -0.12499,-0.44554 -0.28365,-0.43974 -0.24481,0.009 0.0294,0.33915 0.0186,0.35138 -0.33167,0.37762 -0.90166,0.0675 -1.6549,-0.48287 -1.6549,-1.20928 0,-0.19802 -0.0465,-0.36004 -0.10344,-0.36004 -0.0569,0 -0.10342,0.14721 -0.10342,0.32713 0,0.26483 -0.0394,0.32714 -0.20687,0.32714 -0.29183,0 -0.58736,-0.29872 -0.73446,-0.74238 -0.0692,-0.20857 -0.16579,-0.37923 -0.21476,-0.37923 -0.0974,0 -0.0104,0.41315 0.14446,0.68564 0.14914,0.26244 0.0518,0.27434 -0.58628,0.0717 -0.35631,-0.11317 -0.57244,-0.14514 -0.54885,-0.0812 0.0498,0.1351 0.65882,0.33483 1.06073,0.34789 0.17066,0.006 0.40064,0.0718 0.51106,0.14731 0.11043,0.0755 0.29661,0.13752 0.41373,0.13787 0.26246,7.8e-4 0.72906,0.58642 0.63803,0.80079 -0.0353,0.083 -0.15696,0.17293 -0.27045,0.19975 -0.24847,0.0587 -0.25373,0.0909 -0.0456,0.27902 0.095,0.0859 0.14787,0.26449 0.12929,0.43688 -0.0255,0.2362 -0.0864,0.3006 -0.32031,0.33878 -0.28419,0.0464 -0.28554,0.0497 -0.0834,0.2053 0.30862,0.23754 0.39136,0.78452 0.15447,1.02107 -0.18587,0.1856 -0.1849,0.19425 0.0387,0.34676 0.32103,0.21898 0.66653,0.83444 0.59029,1.05152 -0.0395,0.11247 -0.15732,0.17976 -0.31475,0.17976 -0.13838,0 -0.25161,0.047 -0.25161,0.10437 0,0.0604 0.10693,0.0859 0.25384,0.0605 0.30733,-0.0531 0.73888,0.31281 0.87507,0.74195 0.0954,0.30049 -0.0828,0.7529 -0.48935,1.24291 -0.10664,0.12852 -0.31944,0.40677 -0.47287,0.61834 -0.36468,0.50283 -0.84123,0.73692 -1.33115,0.65386 -0.46828,-0.0794 -1.53568,-0.8176 -1.70468,-1.17895 -0.19299,-0.41264 0.024,-1.16835 0.40612,-1.41421 0.35756,-0.23008 0.39046,-0.44185 0.036,-0.23199 -0.40795,0.24155 -0.48336,0.19237 -0.44889,-0.29276 0.0284,-0.399 0.0715,-0.46702 0.42809,-0.67502 0.41431,-0.24165 0.33517,-0.39363 -0.0963,-0.18495 -0.13652,0.066 -0.27852,0.0927 -0.31556,0.0592 -0.1307,-0.11811 0.12631,-0.67247 0.35414,-0.76385 0.28145,-0.11288 0.29924,-0.23487 0.0342,-0.23487 -0.34666,0 -0.42641,-0.47997 -0.15775,-0.94946 0.14091,-0.24623 0.20551,-0.27834 0.46544,-0.23136 0.16838,0.0304 0.30183,0.0143 0.30183,-0.0366 0,-0.0501 -0.0874,-0.0911 -0.1942,-0.0911 -0.40512,0 -0.64731,-0.63964 -0.42545,-1.12365 0.12629,-0.27551 0.1372,-0.2793 0.38379,-0.1333 0.38345,0.22705 0.41077,0.0838 0.0432,-0.22654 -0.27399,-0.23129 -0.32449,-0.34175 -0.32449,-0.70989 0,-0.23979 -0.0467,-0.5148 -0.10373,-0.61114 -0.096,-0.16213 0.0303,-0.81258 0.25701,-1.32361 0.0885,-0.19959 0.72,-0.57698 1.20832,-0.72215 0.41958,-0.12473 0.93756,0.005 1.21099,0.30266 0.12447,0.13564 0.11492,0.15468 -0.0776,0.15468 -0.12074,0 -0.21952,0.0367 -0.21952,0.0815 0,0.0448 0.17811,0.0773 0.3958,0.0721 0.44044,-0.0104 1.15207,0.32603 0.81951,0.38747 -0.40271,0.0744 -0.14703,0.19424 0.31029,0.14542 0.41267,-0.044 0.52284,-0.0209 0.68833,0.14461 0.13992,0.13992 0.32099,0.19704 0.62458,0.19704 0.23514,0 0.61012,0.0841 0.83329,0.18694 0.22315,0.10281 0.60441,0.18693 0.84722,0.18693 0.24281,0 0.6285,0.0676 0.85708,0.15027 0.22858,0.0827 0.49716,0.12173 0.59683,0.0868 0.27318,-0.0956 1.65465,-0.26231 2.32384,-0.28037 0.49937,-0.0135 0.63198,-0.0558 0.85407,-0.27231 0.1446,-0.14099 0.4745,-0.34093 0.73312,-0.44431 0.25861,-0.10338 0.5166,-0.27996 0.57329,-0.39241 0.0567,-0.11245 0.38282,-0.38952 0.72472,-0.61572 0.3419,-0.2262 0.70783,-0.56235 0.81319,-0.747 0.10536,-0.18465 0.35511,-0.47766 0.555,-0.65114 0.33627,-0.29184 0.39805,-0.31072 0.82665,-0.25264 0.68951,0.0934 0.96024,0.36916 1.0502,1.06963 0.0774,0.60282 -0.0668,0.98053 -0.42118,1.10344 -0.13292,0.0461 -0.13239,0.0661 0.004,0.15854 0.13038,0.0882 0.13484,0.14431 0.0269,0.33761 -0.0712,0.1275 -0.24495,0.2846 -0.38605,0.34912 -0.18572,0.0849 -0.20712,0.11768 -0.0775,0.11867 0.22823,0.002 0.34086,0.38905 0.18813,0.64694 -0.0637,0.1076 -0.18404,0.19564 -0.26738,0.19564 -0.0833,0 -0.1515,0.0421 -0.1515,0.0935 0,0.0514 0.0698,0.0935 0.15515,0.0935 0.16097,0 0.20352,0.24466 0.0893,0.51358 -0.0362,0.0852 -0.18747,0.19974 -0.33615,0.25443 l -0.27033,0.0994 0.25858,0.0612 c 0.34299,0.0812 0.35983,0.47996 0.0258,0.61237 -0.30586,0.12126 -0.29631,0.23486 0.0198,0.23486 0.31043,0 0.40715,0.1271 0.32416,0.42592 -0.0405,0.14602 -0.1373,0.22835 -0.26831,0.22835 -0.11269,0 -0.20489,0.047 -0.20489,0.10437 0,0.0618 0.10885,0.0856 0.26672,0.0583 0.16956,-0.0293 0.28667,8.7e-4 0.32145,0.0828 0.0878,0.20675 -0.0612,0.59577 -0.22813,0.59577 -0.0842,0 -0.15318,0.047 -0.15318,0.10437 0,0.0577 0.0908,0.0829 0.20306,0.0564 0.25374,-0.06 0.39101,0.0848 0.42353,0.44679 0.0482,0.53688 -0.002,0.71752 -0.21287,0.76738 -0.11377,0.0269 -0.20686,0.0868 -0.20686,0.13323 0,0.0464 0.11109,0.0592 0.24686,0.0284 0.21795,-0.0494 0.26833,-0.005 0.43005,0.37746 0.17112,0.4049 0.172,0.45464 0.0134,0.75521 -0.0981,0.18585 -0.24695,0.32234 -0.35246,0.32314 -0.13546,10e-4 -0.11583,0.0318 0.0759,0.11917 0.30651,0.13963 0.37489,0.43762 0.21269,0.92685 -0.0888,0.26792 -0.17344,0.35605 -0.34614,0.36053 l -0.22856,0.006 0.23272,0.0845 c 0.29889,0.10856 0.31435,0.58256 0.0319,0.97849 -0.40832,0.5724 -0.5948,0.73204 -0.78008,0.66779 -0.13531,-0.0469 -0.16432,-0.0257 -0.11703,0.0856 0.0967,0.2277 -0.12292,0.51021 -0.51028,0.65647 -0.45546,0.17197 -0.86526,0.16852 -0.94018,-0.008 -0.0868,-0.20439 -0.26939,-0.17201 -0.19672,0.0349 0.0468,0.13339 -0.0229,0.21129 -0.29309,0.32714 -0.59792,0.25639 -1.06541,0.20115 -1.48176,-0.17508 -0.40034,-0.36178 -0.46693,-0.39464 -0.37872,-0.18694 0.0477,0.11226 -0.0365,0.1402 -0.42211,0.1402 -0.5976,0 -1.06863,-0.21063 -1.15338,-0.51576 -0.0354,-0.12758 -0.11091,-0.23197 -0.16771,-0.23197 -0.0568,0 -0.0765,0.0631 -0.0437,0.1402 0.15935,0.37526 -0.69062,-0.002 -1.06445,-0.47216 -0.21585,-0.27161 -0.40789,-0.41577 -0.55386,-0.41577 -0.22257,0 -0.22251,5.9e-4 0.0156,0.15127 0.32179,0.20368 0.93977,1.09091 0.9837,1.4123 0.0195,0.14246 0.11109,0.42043 0.20359,0.61769 0.20641,0.44017 0.10705,0.95079 -0.28091,1.44352 -0.26229,0.33313 -0.27089,0.58745 -0.0133,0.39429 0.23847,-0.17884 0.28258,0.0645 0.10933,0.60303 -0.0897,0.27891 -0.23581,0.57278 -0.32462,0.65304 -0.24433,0.22079 -0.63654,0.18576 -0.72062,-0.0644 l 0,0 z"
       id="path4053"
       inkscape:connector-curvature="0" />
    <g
       id="g4055"
       transform="matrix(0.07240167,0,0,0.06542676,597.59371,778.41572)">
      <g
         id="g4057">
        <g
           id="g4059">
          <path
             inkscape:connector-curvature="0"
             id="path4061"
             d="m -541.19763,681.60074 c -3.40915,-3.75647 -3.98815,-5.39337 -3.86016,-10.91322 0.13821,-5.96108 0.29686,-5.70418 -6.839,-11.07364 -6.95143,-5.23068 -13.51019,-16.58289 -18.24548,-31.58012 l -2.3131,-7.32588 -0.24836,-33.21429 c -0.13659,-18.26785 -0.0313,-36.52948 0.23406,-40.58139 0.4747,-7.24932 0.5047,-7.34694 1.87674,-6.10526 1.36106,1.23174 1.3823,2.13217 0.88991,37.73216 -0.4621,33.41028 -0.39831,36.9491 0.76031,42.17669 3.22212,14.53796 9.83697,26.07736 22.51561,39.2778 5.72795,5.96368 8.63639,10.9614 10.12035,17.39028 0.44823,1.94184 0.61696,4.04663 0.37494,4.67732 -0.63793,1.66242 -3.57207,1.40585 -5.26582,-0.46045 l 0,0 z"
             style="fill:#f9f60c;fill-opacity:1;fill-rule:nonzero;stroke:none" />
          <path
             inkscape:connector-curvature="0"
             id="path4063"
             d="m -420.70239,689.17033 c -17.94151,-1.42536 -25.40764,-3.85657 -49.28571,-16.04898 -12.29119,-6.27601 -12.61754,-6.39426 -19.5359,-7.07873 -3.86975,-0.38285 -7.3251,-0.87483 -7.67857,-1.09328 -1.26894,-0.78425 -0.6081,-2.43721 1.15087,-2.87868 3.74537,-0.94003 10.9383,1.23228 21.9653,6.63365 21.63938,10.59964 35.50252,15.93337 44.8818,17.2679 15.50265,2.20578 20.9798,1.53833 31.99203,-3.89857 8.99212,-4.43955 13.38505,-8.76713 16.4218,-16.17756 1.24551,-3.03934 2.58395,-7.21017 2.9743,-9.26849 1.12897,-5.95304 0.12083,-17.73456 -2.2485,-26.27685 -3.09135,-11.14548 -4.0066,-17.29142 -6.43543,-43.21429 -1.93822,-20.68657 -2.16297,-25.44122 -1.83637,-38.84904 0.3474,-14.2616 0.47112,-15.37659 1.86041,-16.76587 l 1.48826,-1.48826 0.007,23.19444 c 0.007,22.5127 0.67914,37.86201 2.17342,49.62302 1.711,13.46665 3.77795,23.97448 5.83092,29.64285 2.59422,7.1628 3.05771,12.01395 2.11742,22.16248 -0.89286,9.63675 -2.95125,14.1499 -9.68832,21.24227 -6.39828,6.73573 -10.95873,10.03699 -16.00948,11.5891 -4.17482,1.28293 -14.41354,2.13825 -20.14531,1.68289 l -8e-5,0 z"
             style="fill:#f9f60c;fill-opacity:1;fill-rule:nonzero;stroke:none" />
          <path
             inkscape:connector-curvature="0"
             id="path4065"
             d="m -501.05953,541.39137 c -13.02967,-1.71757 -26.4811,-5.05797 -45.87637,-11.39249 -10.08892,-3.29506 -13.77568,-4.92971 -23.34755,-10.35197 -9.98242,-5.65482 -11.78752,-6.43903 -14.82143,-6.43903 -3.44976,0 -3.8377,-0.31353 -3.02109,-2.44158 0.92361,-2.40689 4.73324,-1.1059 20.74493,7.08444 10.52524,5.38389 16.84219,8.21499 18.33287,8.21633 1.25089,0.001 8.3815,2.10265 15.84578,4.67007 13.123,4.5138 20.69594,6.7153 28.44282,8.26851 2.13472,0.428 13.06769,0.71153 25.8429,0.67019 23.16715,-0.075 38.89797,-1.45317 46.69338,-4.0909 9.90303,-3.35088 26.74775,-14.12867 36.04767,-23.06445 7.18095,-6.89978 12.6256,-14.64663 18.33037,-26.08114 3.81151,-7.63968 4.00308,-7.87961 6.42858,-8.05178 1.39607,-0.0991 3.76162,0.44925 5.35714,1.24182 2.85532,1.41836 2.85564,1.419 0.50668,1.00718 -1.5616,-0.27379 -2.94885,-0.02 -4.13341,0.75615 -2.23499,1.46441 -7.58628,8.68175 -9.99956,13.48648 -5.41765,10.7863 -15.98112,22.77052 -26.03753,29.5395 -6.71152,4.51753 -20.185,11.49592 -27.83822,14.41842 -4.73336,1.80749 -7.53903,2.34837 -15.22188,2.93447 -13.00748,0.99229 -43.5492,0.77015 -52.27608,-0.38022 l 0,0 z"
             style="fill:#f9f60c;fill-opacity:1;fill-rule:nonzero;stroke:none" />
        </g>
      </g>
    </g>
    <g
       id="g3856"
       clip-path="url(#clipPath3866)"
       transform="matrix(2.027574,0,0,1.9021963,-594.43132,-741.96533)">
      <path
         transform="matrix(1.4630872,0,0,1.4630872,-203.22365,-380.62887)"
         clip-path="url(#clipPath3838)"
         style="fill:#ff6060;fill-opacity:1;fill-rule:nonzero;stroke:none"
         d="m 540.59974,826.74005 c -0.2655,-0.0992 -0.4913,-0.47231 -0.4913,-0.81176 0,-0.28169 0.24821,-0.57129 0.65937,-0.76932 0.32437,-0.15623 1.05073,-0.33625 1.35895,-0.33681 0.4306,-7.7e-4 0.68172,-0.36727 0.37575,-0.54837 -0.11055,-0.0654 -0.24927,-0.0829 -0.65938,-0.0829 -0.49411,0 -0.52895,-0.007 -0.71636,-0.13616 -0.3488,-0.24111 -0.43426,-0.52695 -0.24252,-0.81114 0.11877,-0.17604 0.18241,-0.2045 0.76273,-0.34112 0.25771,-0.0607 0.42665,-0.12443 0.42665,-0.16101 0,-0.0456 -0.11141,-0.0329 -0.45215,0.0519 -0.24868,0.0618 -0.51723,0.11242 -0.59679,0.11242 -0.31068,0 -1.05892,-0.43876 -1.73097,-1.01502 -0.45753,-0.3923 -0.47857,-0.41909 -0.47838,-0.60897 0,-0.19859 -0.0826,-0.2711 -0.13341,-0.11683 -0.0975,0.29593 -0.24564,0.4635 -0.5589,0.63222 -0.8219,0.44267 -1.63147,0.48629 -2.4052,0.12959 -0.4466,-0.20588 -1.21999,-1.35866 -1.38117,-2.05867 -0.18445,-0.80115 0.11818,-1.5179 0.85821,-2.03248 0.394,-0.27397 0.66216,-0.33933 1.06604,-0.25982 0.16776,0.033 0.37484,0.0628 0.46016,0.0662 0.14759,0.006 0.15593,0.0172 0.17105,0.2312 0.0168,0.23739 0.12388,0.28879 0.15656,0.0751 0.0423,-0.2766 0.26744,-0.26027 1.04813,0.076 0.55556,0.23932 0.63825,0.26226 0.84452,0.23431 0.77174,-0.10458 1.22021,-0.98397 1.15429,-2.2634 -0.0141,-0.27323 -0.0652,-0.64857 -0.11358,-0.83408 -0.079,-0.30268 -0.12873,-0.38188 -0.48502,-0.77173 -0.41446,-0.45351 -0.93793,-1.15506 -1.16011,-1.55478 -0.18262,-0.32855 -0.35736,-0.85079 -0.7349,-2.19647 -0.70139,-2.49999 -0.71668,-2.6907 -0.21523,-2.68456 0.11741,0.001 0.31802,0.0409 0.4458,0.0877 l 0.23234,0.0851 0.0881,0.6472 c 0.28303,2.08024 1.02013,3.73899 2.09416,4.71271 0.19393,0.17581 0.42749,0.34821 0.51902,0.3831 0.22236,0.0848 0.8562,0.0803 1.51815,-0.0107 0.85649,-0.11773 1.58362,0.002 1.95232,0.32061 0.24103,0.20849 0.60822,0.67928 0.74039,0.94927 0.0993,0.20282 0.10735,0.28125 0.0811,0.78822 -0.047,0.90828 -0.20411,1.46325 -0.56769,2.00472 -1.05288,1.56804 -2.89191,2.66797 -4.83475,2.89169 -1.30809,0.15062 -2.20669,-0.35913 -2.56687,-1.45612 -0.0458,-0.13961 -0.0833,-0.39723 -0.0833,-0.57249 0,-0.36229 -0.0794,-0.42519 -0.13254,-0.10498 -0.0397,0.23901 -0.13774,0.3004 -0.4799,0.3004 -0.28772,0 -0.523,-0.16247 -0.5245,-0.36218 -7.3e-4,-0.0578 -0.0241,-0.10515 -0.0525,-0.10515 -0.0284,0 -0.0517,0.0999 -0.0517,0.22198 -2e-5,0.12209 -0.0443,0.32716 -0.0983,0.45571 -0.18699,0.44456 -0.18785,0.62022 -0.005,1.01387 0.22086,0.47544 0.40225,0.66538 0.72913,0.7635 0.41641,0.12498 0.83671,0.0806 1.22704,-0.12948 l 0.318,-0.17119 0.29798,0.12619 c 0.27415,0.11609 0.35539,0.12692 1.01565,0.1353 0.83007,0.0105 0.74536,-0.0288 1.27338,0.59178 0.18489,0.2173 0.38961,0.4181 0.45495,0.44622 0.17141,0.0738 0.89988,0.0628 1.38096,-0.0208 0.22754,-0.0395 0.46675,-0.06 0.53156,-0.0455 0.16398,0.0367 0.29277,0.29694 0.24968,0.5045 -0.0732,0.35253 -0.78124,0.92009 -1.24283,0.99624 -0.1401,0.0231 -0.26539,0.0715 -0.27843,0.10752 -0.0178,0.0492 0.007,0.0576 0.0996,0.0336 0.0678,-0.0175 0.33605,-0.054 0.59611,-0.0809 0.46708,-0.0485 0.47558,-0.0475 0.69816,0.077 0.28391,0.15879 0.59965,0.42765 0.69503,0.59184 0.12772,0.21985 0.0939,0.554 -0.08,0.7913 -0.34528,0.47106 -1.14244,0.90077 -1.9884,1.07185 -0.26875,0.0543 -0.31562,0.0518 -0.47486,-0.0257 -0.20823,-0.10134 -0.30543,-0.0542 -0.132,0.064 l 0.1201,0.0819 -0.12087,0.0734 c -0.14926,0.0906 -0.0958,0.15902 0.064,0.0818 0.0639,-0.0309 0.36258,-0.11489 0.6638,-0.18666 0.30122,-0.0718 0.65822,-0.17364 0.79333,-0.22636 0.27944,-0.10907 0.29015,-0.0937 0.16526,0.23753 -0.12828,0.34024 -0.37931,0.5699 -0.69484,0.63572 -0.30062,0.0627 -1.2645,0.0702 -1.42268,0.0111 l 0,0 z"
         id="path4069"
         inkscape:connector-curvature="0" />
      <path
         inkscape:connector-curvature="0"
         id="path3848"
         d="m 540.59974,826.74005 c -0.2655,-0.0992 -0.4913,-0.47231 -0.4913,-0.81176 0,-0.28169 0.24821,-0.57129 0.65937,-0.76932 0.32437,-0.15623 1.05073,-0.33625 1.35895,-0.33681 0.4306,-7.7e-4 0.68172,-0.36727 0.37575,-0.54837 -0.11055,-0.0654 -0.24927,-0.0829 -0.65938,-0.0829 -0.49411,0 -0.52895,-0.007 -0.71636,-0.13616 -0.3488,-0.24111 -0.43426,-0.52695 -0.24252,-0.81114 0.11877,-0.17604 0.18241,-0.2045 0.76273,-0.34112 0.25771,-0.0607 0.42665,-0.12443 0.42665,-0.16101 0,-0.0456 -0.11141,-0.0329 -0.45215,0.0519 -0.24868,0.0618 -0.51723,0.11242 -0.59679,0.11242 -0.31068,0 -1.05892,-0.43876 -1.73097,-1.01502 -0.45753,-0.3923 -0.47857,-0.41909 -0.47838,-0.60897 0,-0.19859 -0.0826,-0.2711 -0.13341,-0.11683 -0.0975,0.29593 -0.24564,0.4635 -0.5589,0.63222 -0.8219,0.44267 -1.63147,0.48629 -2.4052,0.12959 -0.4466,-0.20588 -1.21999,-1.35866 -1.38117,-2.05867 -0.18445,-0.80115 0.11818,-1.5179 0.85821,-2.03248 0.394,-0.27397 0.66216,-0.33933 1.06604,-0.25982 0.16776,0.033 0.37484,0.0628 0.46016,0.0662 0.14759,0.006 0.15593,0.0172 0.17105,0.2312 0.0168,0.23739 0.12388,0.28879 0.15656,0.0751 0.0423,-0.2766 0.26744,-0.26027 1.04813,0.076 0.55556,0.23932 0.63825,0.26226 0.84452,0.23431 0.77174,-0.10458 1.22021,-0.98397 1.15429,-2.2634 -0.0141,-0.27323 -0.0652,-0.64857 -0.11358,-0.83408 -0.079,-0.30268 -0.12873,-0.38188 -0.48502,-0.77173 -0.41446,-0.45351 -0.93793,-1.15506 -1.16011,-1.55478 -0.18262,-0.32855 -0.35736,-0.85079 -0.7349,-2.19647 -0.70139,-2.49999 -0.71668,-2.6907 -0.21523,-2.68456 0.11741,0.001 0.31802,0.0409 0.4458,0.0877 l 0.23234,0.0851 0.0881,0.6472 c 0.28303,2.08024 1.02013,3.73899 2.09416,4.71271 0.19393,0.17581 0.42749,0.34821 0.51902,0.3831 0.22236,0.0848 0.8562,0.0803 1.51815,-0.0107 0.85649,-0.11773 1.58362,0.002 1.95232,0.32061 0.24103,0.20849 0.60822,0.67928 0.74039,0.94927 0.0993,0.20282 0.10735,0.28125 0.0811,0.78822 -0.047,0.90828 -0.20411,1.46325 -0.56769,2.00472 -1.05288,1.56804 -2.89191,2.66797 -4.83475,2.89169 -1.30809,0.15062 -2.20669,-0.35913 -2.56687,-1.45612 -0.0458,-0.13961 -0.0833,-0.39723 -0.0833,-0.57249 0,-0.36229 -0.0794,-0.42519 -0.13254,-0.10498 -0.0397,0.23901 -0.13774,0.3004 -0.4799,0.3004 -0.28772,0 -0.523,-0.16247 -0.5245,-0.36218 -7.3e-4,-0.0578 -0.0241,-0.10515 -0.0525,-0.10515 -0.0284,0 -0.0517,0.0999 -0.0517,0.22198 -2e-5,0.12209 -0.0443,0.32716 -0.0983,0.45571 -0.18699,0.44456 -0.18785,0.62022 -0.005,1.01387 0.22086,0.47544 0.40225,0.66538 0.72913,0.7635 0.41641,0.12498 0.83671,0.0806 1.22704,-0.12948 l 0.318,-0.17119 0.29798,0.12619 c 0.27415,0.11609 0.35539,0.12692 1.01565,0.1353 0.83007,0.0105 0.74536,-0.0288 1.27338,0.59178 0.18489,0.2173 0.38961,0.4181 0.45495,0.44622 0.17141,0.0738 0.89988,0.0628 1.38096,-0.0208 0.22754,-0.0395 0.46675,-0.06 0.53156,-0.0455 0.16398,0.0367 0.29277,0.29694 0.24968,0.5045 -0.0732,0.35253 -0.78124,0.92009 -1.24283,0.99624 -0.1401,0.0231 -0.26539,0.0715 -0.27843,0.10752 -0.0178,0.0492 0.007,0.0576 0.0996,0.0336 0.0678,-0.0175 0.33605,-0.054 0.59611,-0.0809 0.46708,-0.0485 0.47558,-0.0475 0.69816,0.077 0.28391,0.15879 0.59965,0.42765 0.69503,0.59184 0.12772,0.21985 0.0939,0.554 -0.08,0.7913 -0.34528,0.47106 -1.14244,0.90077 -1.9884,1.07185 -0.26875,0.0543 -0.31562,0.0518 -0.47486,-0.0257 -0.20823,-0.10134 -0.30543,-0.0542 -0.132,0.064 l 0.1201,0.0819 -0.12087,0.0734 c -0.14926,0.0906 -0.0958,0.15902 0.064,0.0818 0.0639,-0.0309 0.36258,-0.11489 0.6638,-0.18666 0.30122,-0.0718 0.65822,-0.17364 0.79333,-0.22636 0.27944,-0.10907 0.29015,-0.0937 0.16526,0.23753 -0.12828,0.34024 -0.37931,0.5699 -0.69484,0.63572 -0.30062,0.0627 -1.2645,0.0702 -1.42268,0.0111 l 0,0 z"
         style="fill:#0eb30f;fill-opacity:1;fill-rule:nonzero;stroke:none"
         clip-path="url(#clipPath3850)"
         transform="matrix(1.4630872,0,0,1.4630872,-203.22365,-380.62887)" />
    </g>
  </g>
</svg>
